<?xml version="1.0" encoding="UTF-8" standalone="no"?>
<!-- Created with Inkscape (http://www.inkscape.org/) -->

<svg
   width="20.877293mm"
   height="24.828159mm"
   viewBox="0 0 20.877293 24.828159"
   version="1.1"
   id="svg1"
   inkscape:version="1.3 (0e150ed, 2023-07-21)"
   sodipodi:docname="harvard_shield.svg"
   xmlns:inkscape="http://www.inkscape.org/namespaces/inkscape"
   xmlns:sodipodi="http://sodipodi.sourceforge.net/DTD/sodipodi-0.dtd"
   xmlns="http://www.w3.org/2000/svg"
   xmlns:svg="http://www.w3.org/2000/svg">
  <sodipodi:namedview
     id="namedview1"
     pagecolor="#ffffff"
     bordercolor="#000000"
     borderopacity="0.25"
     inkscape:showpageshadow="2"
     inkscape:pageopacity="0.0"
     inkscape:pagecheckerboard="0"
     inkscape:deskcolor="#d1d1d1"
     inkscape:document-units="mm"
     inkscape:zoom="0.92737795"
     inkscape:cx="63.081077"
     inkscape:cy="179.53845"
     inkscape:window-width="1392"
     inkscape:window-height="1212"
     inkscape:window-x="0"
     inkscape:window-y="25"
     inkscape:window-maximized="0"
     inkscape:current-layer="layer1" />
  <defs
     id="defs1" />
  <g
     inkscape:label="Layer 1"
     inkscape:groupmode="layer"
     id="layer1"
     transform="translate(-88.397597,-101.05766)">
    <path
       id="path19"
       d="m 88.551103,101.18963 h 20.634887 v 7.79558 c 0,3.57064 -1.32926,11.14517 -10.239656,16.78189 0,0 -9.655633,-4.03201 -10.395231,-16.78189 v -7.79558"
       style="fill:#a51c30;fill-opacity:1;fill-rule:nonzero;stroke:none;stroke-width:0.0352777" />
    <path
       id="path20"
       d="m 88.639861,101.29988 v 7.67224 c 0.697301,12.01138 9.469332,16.27904 10.263893,16.64064 9.141356,-5.80979 10.128996,-13.56953 10.128996,-16.64064 v -7.67224 z m 10.28566,24.58586 -0.05828,-0.0242 c -0.09716,-0.0406 -9.733915,-4.20716 -10.469506,-16.88236 l -1.38e-4,-7.92152 h 20.877293 v 7.9145 c 0,3.11725 -1.00323,11.00198 -10.296172,16.87986 l -0.0532,0.0338"
       style="fill:#1f1f1f;fill-opacity:1;fill-rule:nonzero;stroke:none;stroke-width:0.0352777" />
    <path
       id="path21"
       d="m 104.16953,111.20563 c 0,0 -0.18369,0.58677 -1.00239,-0.016 l -2.80885,-0.0674 c 0,0 -0.367945,0.11811 -0.417687,-0.26653 0,0 0.06738,-0.76919 0.03305,-0.83643 0,0 0.01669,-0.21721 -0.351648,-0.21721 0,0 -0.568749,0.067 -0.584729,-0.4349 0,0 -0.09977,-0.53538 0.685729,-0.51813 0,0 0.250648,0.11656 0.267335,-0.20119 0,0 -0.0332,-2.17399 -0.01669,-2.34004 0,0 0.06738,-0.20052 -0.317888,-0.23414 0,0 -0.551498,0.11645 -0.61849,-0.24984 0,0 -0.03348,-0.5523 0.334892,-0.58663 0,0 0.451308,0.0343 0.534811,-0.0835 0,0 0.101005,0.0662 0.08336,-0.33338 l 0.01766,-0.6864 c 0,0 0.0485,-0.18383 0.33362,-0.1663 0,0 0.51815,0.0333 0.58553,-0.0175 0,0 0.11589,-0.14993 0.15032,-0.21769 0,0 0.26747,-0.016 0.31735,0.0507 0,0 0.40157,0.26761 1.92263,0.167 0,0 0.23485,0 0.28418,0.0677 0,0 0.28416,0.21721 0.45158,-0.0168 0,0 0.25012,-0.0509 1.00267,-0.0333 0,0 0.8195,0.21689 1.38808,-0.25125 l 0.18425,0.0331 c 0,0 0.23373,0.38446 0.40086,0.26829 0,0 0.50176,-0.0501 0.58498,0.05 0,0 0.1669,0.24959 0.0835,0.90276 0,0 -0.0998,0.28388 0.38516,0.28388 0,0 0.55231,-0.10072 0.48394,0.41755 0,0 0.1505,0.58592 -0.76796,0.50228 0,0 -0.11769,0.16718 -0.10114,0.28445 0,0 -0.0165,1.90528 -0.0332,2.1234 0,0 -0.0164,0.3011 0.38464,0.28445 0,0 0.53548,-0.0348 0.55259,0.45074 0,0 0.0663,0.63585 -0.70309,0.51816 0,0 -0.23414,0.0336 -0.26832,0.18383 l -0.0324,0.83644 c 0,0 0.0162,0.41783 -0.45144,0.31739 -0.0667,0 -2.60795,0.0503 -2.82569,-0.0163 0,0 -0.11825,-0.0171 -0.15116,0.0487"
       style="fill:#ffffff;fill-opacity:1;fill-rule:nonzero;stroke:none;stroke-width:0.0352777" />
    <path
       id="path22"
       d="m 98.769275,114.00058 c 0,0 0.116699,-0.0492 0.150213,-0.13201 0,0 0.351261,-0.0345 0.401003,-0.0841 l 1.103949,0.0841 c 0,0 1.08631,0.0828 1.55469,-0.25287 0,0 0.16838,0 0.28568,0.051 0,0 0.23273,0.0503 0.29915,0.15007 l 0.63624,-0.0172 c 0,0 0.36752,0.11836 0.33376,0.35278 v 0.29986 c 0,0 -0.0672,0.60233 0.10005,0.63595 h 0.48602 c 0,0 0.40104,0.18426 0.35102,0.41798 0,0 0.0165,0.33362 -0.33348,0.40057 0,0 -0.35239,0.10005 -0.46842,0.0844 0,0 -0.11797,0.1505 -0.13519,0.33363 l -0.0496,2.19068 c 0,0 -0.0338,0.2341 0.3175,0.20048 0,0 0.5176,-0.0496 0.66919,0.23509 0,0 0.13405,0.48454 -0.13367,0.56804 l -0.19981,0.0995 -0.43618,0.0685 c 0,0 -0.18327,0.0162 -0.19995,0.3332 v 0.58498 c 0,0 0.0167,0.40171 -0.30124,0.40171 l -0.46782,0.0339 c 0,0 -0.11716,0.0995 -0.35101,0.0329 0,0 -2.842334,0.0507 -2.943052,0.016 l -0.335139,0.0684 c 0,0 -0.367136,0.33429 -0.668513,0.0824 l -0.233963,-0.18454 c 0,0 -0.166758,0.0338 -0.233468,0.0178 -0.0671,-0.0178 -3.14385,0.0339 -3.14385,0.0339 0,0 -0.652074,0.0671 -0.701674,-0.15103 0,0 -0.08326,-0.85287 -0.05031,-0.95373 0,0 0,-0.2497 -0.150636,-0.26709 0,0 -0.651934,-0.0325 -0.66862,-0.10044 0,0 -0.351825,-0.25012 -0.250931,-0.50052 0,0 0.117405,-0.33567 0.468383,-0.36833 0,0 0.53467,0.0846 0.53467,-0.067 0,0 0.03418,-0.10044 0.03418,-0.26649 0,0 0.03295,-1.99087 0.01612,-2.12425 0,0 0.04988,-0.25122 -0.167428,-0.25122 0,0 -0.233997,0.0663 -0.38421,-0.0332 0,0 -0.400862,0.0171 -0.484787,-0.30138 0,0 -0.06738,-0.20009 0.03309,-0.36876 0,0 0.183973,-0.36724 0.719067,-0.24955 0,0 0.301095,0.0842 0.334151,-0.13286 l -0.0157,-0.8031 c 0,0 -0.06795,-0.2172 0.350555,-0.33446 0,0 0.535093,0.15021 0.701569,-0.11713 0,0 0.184397,-0.36823 0.333481,-0.11797 0,0 0.318875,0.30181 1.188437,0.26956 0,0 1.505091,-0.11797 1.5379,-0.0518 0,0 0.367488,0.0518 0.467818,0.16757 l 0.100753,0.0163"
       style="fill:#ffffff;fill-opacity:1;fill-rule:nonzero;stroke:none;stroke-width:0.0352777" />
    <path
       id="path23"
       d="m 94.222993,111.20563 c 0,0 -0.184115,0.58677 -1.003229,-0.0166 l -2.808852,-0.0667 c 0,0 -0.367947,0.11811 -0.418112,-0.26734 0,0 0.06713,-0.76838 0.03281,-0.83562 0,0 0.01736,-0.21774 -0.350556,-0.21774 0,0 -0.568042,0.0683 -0.584588,-0.43395 0,0 -0.100718,-0.53618 0.685024,-0.51855 0,0 0.25012,0.11656 0.267476,-0.20066 0,0 -0.03376,-2.17342 -0.01736,-2.3417 0,0 0.06837,-0.19844 -0.317076,-0.23234 0,0 -0.55245,0.11578 -0.618067,-0.25216 0,0 -0.03404,-0.55065 0.333622,-0.58498 0,0 0.451167,0.0343 0.535376,-0.0821 0,0 0.100471,0.0654 0.0835,-0.33613 l 0.01697,-0.68474 c 0,0 0.05016,-0.18411 0.333621,-0.167 0,0 0.518831,0.0325 0.586211,-0.0171 0,0 0.117123,-0.14993 0.149119,-0.2177 0,0 0.26857,-0.0152 0.318876,0.0503 0,0 0.400579,0.26737 1.923592,0.16743 0,0 0.232762,0 0.283739,0.0671 0,0 0.283457,0.21688 0.450356,-0.0175 0,0 0.251071,-0.0496 1.003758,-0.0325 0,0 0.817986,0.21635 1.387122,-0.24998 l 0.183692,0.0332 c 0,0 0.233715,0.38378 0.402378,0.2668 0,0 0.50105,-0.05 0.58554,0.0506 0,0 0.166864,0.25041 0.08227,0.90276 0,0 -0.09977,0.28445 0.384598,0.28445 0,0 0.551921,-0.0999 0.48507,0.41698 0,0 0.151165,0.58593 -0.768809,0.50229 0,0 -0.117404,0.16785 -0.100859,0.28444 0,0 -0.01654,1.90528 -0.03309,2.1234 0,0 -0.01598,0.30001 0.384916,0.28445 0,0 0.534952,-0.0351 0.551356,0.45131 0,0 0.06639,0.63528 -0.701851,0.51759 0,0 -0.234421,0.0344 -0.268041,0.18384 l -0.03306,0.83562 c 0,0 0.0175,0.41864 -0.452261,0.31859 -0.06671,0 -2.607134,0.0495 -2.824868,-0.0161 0,0 -0.116558,-0.0176 -0.150319,0.0482"
       style="fill:#ffffff;fill-opacity:1;fill-rule:nonzero;stroke:none;stroke-width:0.0352777" />
    <path
       id="path24"
       d="m 104.16953,111.20563 c 0,0 -0.18369,0.58677 -1.00239,-0.016 l -2.80885,-0.0674 c 0,0 -0.367945,0.11811 -0.417687,-0.26653 0,0 0.06738,-0.76919 0.03305,-0.83643 0,0 0.01669,-0.21721 -0.351648,-0.21721 0,0 -0.568749,0.067 -0.584729,-0.4349 0,0 -0.09977,-0.53538 0.685729,-0.51813 0,0 0.250648,0.11656 0.267335,-0.20119 0,0 -0.0332,-2.17399 -0.01669,-2.34004 0,0 0.06738,-0.20052 -0.317888,-0.23414 0,0 -0.551498,0.11645 -0.61849,-0.24984 0,0 -0.03348,-0.5523 0.334892,-0.58663 0,0 0.451308,0.0343 0.534811,-0.0835 0,0 0.101005,0.0662 0.08336,-0.33338 l 0.01766,-0.6864 c 0,0 0.0485,-0.18383 0.33362,-0.1663 0,0 0.51815,0.0333 0.58553,-0.0175 0,0 0.11589,-0.14993 0.15032,-0.21769 0,0 0.26747,-0.016 0.31735,0.0507 0,0 0.40157,0.26761 1.92263,0.167 0,0 0.23485,0 0.28418,0.0677 0,0 0.28416,0.21721 0.45158,-0.0168 0,0 0.25012,-0.0509 1.00267,-0.0333 0,0 0.8195,0.21689 1.38808,-0.25125 l 0.18425,0.0331 c 0,0 0.23373,0.38446 0.40086,0.26829 0,0 0.50176,-0.0501 0.58498,0.05 0,0 0.1669,0.24959 0.0835,0.90276 0,0 -0.0998,0.28388 0.38516,0.28388 0,0 0.55231,-0.10072 0.48394,0.41755 0,0 0.1505,0.58592 -0.76796,0.50228 0,0 -0.11769,0.16718 -0.10114,0.28445 0,0 -0.0165,1.90528 -0.0332,2.1234 0,0 -0.0164,0.3011 0.38464,0.28445 0,0 0.53548,-0.0348 0.55259,0.45074 0,0 0.0663,0.63585 -0.70309,0.51816 0,0 -0.23414,0.0336 -0.26832,0.18383 l -0.0324,0.83644 c 0,0 0.0162,0.41783 -0.45144,0.31739 -0.0667,0 -2.60795,0.0503 -2.82569,-0.0163 0,0 -0.11825,-0.0171 -0.15116,0.0487"
       style="fill:#1f1f1f;fill-opacity:1;fill-rule:nonzero;stroke:none;stroke-width:0.0352777" />
    <path
       id="path25"
       d="m 104.16953,111.20563 c 0,0 -0.18369,0.58677 -1.00239,-0.016 l -2.80885,-0.0674 c 0,0 -0.367945,0.11811 -0.417687,-0.26653 0,0 0.06738,-0.76919 0.03305,-0.83643 0,0 0.01669,-0.21721 -0.351648,-0.21721 0,0 -0.568749,0.067 -0.584729,-0.4349 0,0 -0.09977,-0.53538 0.685729,-0.51813 0,0 0.250648,0.11656 0.267335,-0.20119 0,0 -0.0332,-2.17399 -0.01669,-2.34004 0,0 0.06738,-0.20052 -0.317888,-0.23414 0,0 -0.551498,0.11645 -0.61849,-0.24984 0,0 -0.03348,-0.5523 0.334892,-0.58663 0,0 0.451308,0.0343 0.534811,-0.0835 0,0 0.101005,0.0662 0.08336,-0.33338 l 0.01766,-0.6864 c 0,0 0.0485,-0.18383 0.33362,-0.1663 0,0 0.51815,0.0333 0.58553,-0.0175 0,0 0.11589,-0.14993 0.15032,-0.21769 0,0 0.26747,-0.016 0.31735,0.0507 0,0 0.40157,0.26761 1.92263,0.167 0,0 0.23485,0 0.28418,0.0677 0,0 0.28416,0.21721 0.45158,-0.0168 0,0 0.25012,-0.0509 1.00267,-0.0333 0,0 0.8195,0.21689 1.38808,-0.25125 l 0.18425,0.0331 c 0,0 0.23373,0.38446 0.40086,0.26829 0,0 0.50176,-0.0501 0.58498,0.05 0,0 0.1669,0.24959 0.0835,0.90276 0,0 -0.0998,0.28388 0.38516,0.28388 0,0 0.55231,-0.10072 0.48394,0.41755 0,0 0.1505,0.58592 -0.76796,0.50228 0,0 -0.11769,0.16718 -0.10114,0.28445 0,0 -0.0165,1.90528 -0.0332,2.1234 0,0 -0.0164,0.3011 0.38464,0.28445 0,0 0.53548,-0.0348 0.55259,0.45074 0,0 0.0663,0.63585 -0.70309,0.51816 0,0 -0.23414,0.0336 -0.26832,0.18383 l -0.0324,0.83644 c 0,0 0.0162,0.41783 -0.45144,0.31739 -0.0667,0 -2.60795,0.0503 -2.82569,-0.0163 0,0 -0.11825,-0.0171 -0.15116,0.0487 z"
       style="fill:none;stroke:#1f1f1f;stroke-width:0.0578652;stroke-linecap:butt;stroke-linejoin:miter;stroke-miterlimit:4;stroke-dasharray:none;stroke-opacity:1" />
    <path
       id="path26"
       d="m 101.00994,104.3174 c 0,0 0.0331,0.33538 0.0331,0.41945 0,0.0835 -0.0494,4.83154 -0.0494,4.83154 0,0 0.0494,0.36724 -0.26677,0.55135 0,0 -0.0846,0.033 -0.10086,-0.20076 l 0.0331,-5.01495 c 0,0 0.0333,-0.61916 0.35084,-0.58663"
       style="fill:#ffffff;fill-opacity:1;fill-rule:nonzero;stroke:none;stroke-width:0.0352777" />
    <path
       id="path27"
       d="m 101.00994,104.3174 c 0,0 0.0331,0.33538 0.0331,0.41945 0,0.0835 -0.0494,4.83154 -0.0494,4.83154 0,0 0.0494,0.36724 -0.26677,0.55135 0,0 -0.0846,0.033 -0.10086,-0.20076 l 0.0331,-5.01495 c 0,0 0.0333,-0.61916 0.35084,-0.58663 z"
       style="fill:none;stroke:#1f1f1f;stroke-width:0.0607587;stroke-linecap:butt;stroke-linejoin:miter;stroke-miterlimit:4;stroke-dasharray:none;stroke-opacity:1" />
    <path
       id="path28"
       d="m 100.45873,110.17005 c 0,0 0.0331,-4.71509 0.017,-4.79859 -0.017,-0.0825 0.0161,0.0674 0.0161,0.0674 0,0 -0.0497,-0.81925 0.16729,-1.15468 0,0 -0.0675,-0.28317 -0.45174,0.0677 l -0.0161,0.68489 c 0,0 0,0.3853 -0.351116,0.36861 0,0 -0.401567,-0.0174 -0.585506,0.1662 0,0 -0.100471,0.36837 0.28441,0.30236 0,0 0.601942,0 0.635282,0.24942 l -0.0333,2.52511 c 0,0 0.13377,0.41921 -0.334186,0.41921 0,0 -0.569806,-0.035 -0.552168,0.31598 0,0 0.117793,0.30095 0.602333,0.20077 0,0 0.350411,0.0666 0.334291,0.40199 v 0.63485 c 0,0 -0.0343,0.25192 0.30057,0.26833 h 2.60819 c 0,0 0.13314,0.0168 0.13314,-0.15134 0,0 -0.0161,-0.13311 -0.2165,-0.13311 l -2.17343,-0.0338 c 0,0 -0.3514,0.11797 -0.38449,-0.40128"
       style="fill:#ffffff;fill-opacity:1;fill-rule:nonzero;stroke:none;stroke-width:0.0352777" />
    <path
       id="path29"
       d="m 100.96048,110.16218 c 0,0 -0.067,0.23414 0.1837,0.18482 h 1.72187 l 0.46743,0.101 c 0,0 0.48479,-0.11811 0,-0.38459 0,0 -1.53762,0.0153 -1.67157,-0.017 0,0 -0.31764,-0.0838 -0.38544,-0.10058 0,0 -0.16606,-0.0667 -0.31599,0.21632"
       style="fill:#ffffff;fill-opacity:1;fill-rule:nonzero;stroke:none;stroke-width:0.0352777" />
    <path
       id="path30"
       d="m 100.96048,110.16218 c 0,0 -0.067,0.23414 0.1837,0.18482 h 1.72187 l 0.46743,0.101 c 0,0 0.48479,-0.11811 0,-0.38459 0,0 -1.53762,0.0153 -1.67157,-0.017 0,0 -0.31764,-0.0838 -0.38544,-0.10058 0,0 -0.16606,-0.0667 -0.31599,0.21632 z"
       style="fill:none;stroke:#1f1f1f;stroke-width:0.0607587;stroke-linecap:butt;stroke-linejoin:miter;stroke-miterlimit:4;stroke-dasharray:none;stroke-opacity:1" />
    <path
       id="path31"
       d="m 103.81827,110.39632 c 0,0 -0.3175,0 -0.30085,0.41893 0,0 0.0335,0.31721 0.36823,0.31721 0,0 0.30067,-0.0503 0.26818,-0.38403 0,0 -0.18496,-0.41854 -0.33556,-0.35211"
       style="fill:#ffffff;fill-opacity:1;fill-rule:nonzero;stroke:none;stroke-width:0.0352777" />
    <path
       id="path32"
       d="m 104.05322,110.23027 c 0,0 0.15007,-0.16686 0.25079,-0.16686 0,0 1.67252,0.15003 1.95488,-0.0502 0,0 0.25206,-0.0506 0.31902,0 0,0 0.25054,0.2002 0.25054,0.31665 0,0 -0.017,0.15145 -0.3175,0.0664 0,0 -1.88997,0.0181 -1.98988,0.0181 0,0 -0.51883,0.11645 -0.46785,-0.18412"
       style="fill:#ffffff;fill-opacity:1;fill-rule:nonzero;stroke:none;stroke-width:0.0352777" />
    <path
       id="path33"
       d="m 104.05322,110.23027 c 0,0 0.15007,-0.16686 0.25079,-0.16686 0,0 1.67252,0.15003 1.95488,-0.0502 0,0 0.25206,-0.0506 0.31902,0 0,0 0.25054,0.2002 0.25054,0.31665 0,0 -0.017,0.15145 -0.3175,0.0664 0,0 -1.88997,0.0181 -1.98988,0.0181 0,0 -0.51883,0.11645 -0.46785,-0.18412 z"
       style="fill:none;stroke:#1f1f1f;stroke-width:0.0607587;stroke-linecap:butt;stroke-linejoin:miter;stroke-miterlimit:4;stroke-dasharray:none;stroke-opacity:1" />
    <path
       id="path34"
       d="m 104.27025,110.77185 c 0,0 0,-0.13465 0.23399,-0.13465 l 2.34033,-0.016 c 0,0 0.21816,0.11698 0.21816,-0.28388 0,0 0.0849,-1.82203 0.0937,-3.82958 0.002,-0.5975 0.0298,-1.22425 0.008,-1.80467 0,0 -0.0517,-0.25065 -0.11882,-0.30191 0,0 0,-0.26695 0.28445,-0.16619 0,0 0.25135,0.0166 0.18439,0.40195 l 0.0172,0.58293 c 0,0 -0.0509,0.25217 0.4002,0.18479 0,0 0.4513,0.0674 0.46824,0.23385 0,0 0.13423,0.33567 -0.40019,0.30138 h -0.38545 c 0,0 -0.16729,0.0999 -0.1174,0.30124 l -0.0499,2.42506 c 0,0 -0.0333,0.41727 0.36809,0.40143 0,0 0.4174,-0.0174 0.5009,0.11684 0,0 0.28607,0.41783 -0.33376,0.38393 0,0 -0.38446,-0.0166 -0.46796,0.0507 0,0 -0.0673,0.0828 -0.11701,0.86924 0,0 0.0338,0.46828 -0.31736,0.41797 0,0 -2.32516,0.0328 -2.54166,-0.0168 0,0 -0.23453,0.0671 -0.26776,-0.11769"
       style="fill:#ffffff;fill-opacity:1;fill-rule:nonzero;stroke:none;stroke-width:0.0352777" />
    <path
       id="path35"
       d="m 101.2613,104.16553 -0.0504,5.36871 c 0,0 -0.0163,0.24913 0.40153,0.29944 0,0 0.48468,0.0503 0.60071,0 0,0 0.31969,-0.0167 1.13728,0.0178 0,0 0.20204,0.20161 0.21841,-0.0511 0,0 0.13257,-4.34608 0.0669,-5.25022 0,0 -0.0174,-0.38459 -0.3018,-0.40114 0,0 -1.26986,0.10199 -1.38727,0 l -0.50186,-0.13282 c 0,0 -0.20066,0.0165 -0.18344,0.14937"
       style="fill:#ffffff;fill-opacity:1;fill-rule:nonzero;stroke:none;stroke-width:0.0352777" />
    <path
       id="path36"
       d="m 103.90258,104.43395 c 0,0 -0.0503,2.52487 -0.0333,2.60904 l -0.0336,2.12235 -0.0674,0.73614 c 0,0 0.101,0.15103 0.18397,0.0505 0,0 0.53577,-0.13571 0.86953,-0.0829 0,0 1.07128,0.0991 1.28764,-0.0688 0,0 0.16785,0.0836 0.21692,-0.18359 0,0 0.066,-4.68062 0.0351,-4.76412 0,0 0.0646,-0.67042 0.0309,-0.73642 0,0 -0.0145,-0.14969 -0.29933,-0.0168 0,0 0.0324,0.13381 -1.55497,0.0828 0,0 -0.60124,-0.0167 -0.63543,0.25174"
       style="fill:#ffffff;fill-opacity:1;fill-rule:nonzero;stroke:none;stroke-width:0.0352777" />
    <path
       id="path37"
       d="m 106.5614,104.36837 -0.016,5.28257 c 0,0 0.13356,0.4688 0.34977,0.41977 0,0 0.0328,-0.10118 0.0493,-0.26861 l 0.0681,-5.03301 c 0,0 -0.16799,-0.80144 -0.45116,-0.40072"
       style="fill:#ffffff;fill-opacity:1;fill-rule:nonzero;stroke:none;stroke-width:0.0352777" />
    <path
       id="path38"
       d="m 106.5614,104.36837 -0.016,5.28257 c 0,0 0.13356,0.4688 0.34977,0.41977 0,0 0.0328,-0.10118 0.0493,-0.26861 l 0.0681,-5.03301 c 0,0 -0.16799,-0.80144 -0.45116,-0.40072 z"
       style="fill:none;stroke:#1f1f1f;stroke-width:0.0607587;stroke-linecap:butt;stroke-linejoin:miter;stroke-miterlimit:4;stroke-dasharray:none;stroke-opacity:1" />
    <path
       id="path39"
       d="m 104.50879,105.94981 c -0.0507,-0.1341 0.28445,-0.15036 0.28445,-0.15036 l 0.16729,0.0336 c 0.11698,-0.0174 0.23438,0.0332 0.23438,0.0332 0.11645,0.18383 -0.0842,0.28441 -0.0842,0.28441 l -0.0666,0.21706 c -0.0172,0.18465 0,1.77338 0,1.77338 0.0333,0.0821 0.16743,0.23248 0.16743,0.23248 0,0.15089 -0.18465,0.11811 -0.18465,0.11811 l -0.48506,0.0167 c -0.15022,-0.0167 -0.0998,-0.1845 -0.0998,-0.1845 0.16661,-0.0834 0.21692,-0.3853 0.21692,-0.3853 v -1.65474 l -0.15021,-0.33405"
       style="fill:#1f1f1f;fill-opacity:1;fill-rule:nonzero;stroke:none;stroke-width:0.0352777" />
    <path
       id="path40"
       d="m 102.26837,106.18366 c 0.0161,0.36876 0.0161,0.86981 0.0161,0.86981 0.31849,0.25083 0.5019,-0.10086 0.5019,-0.10086 0.41741,-0.40019 0,-0.76895 -0.0669,-0.86871 -0.0678,-0.10129 -0.40157,-0.0174 -0.40157,-0.0174 z m -0.0165,1.32168 -0.0335,0.51813 0.14979,0.24959 c 0.10118,0.13434 -0.067,0.23534 -0.067,0.23534 l -0.53442,-0.0507 c -0.0996,-0.0503 0,-0.21717 0,-0.21717 0.13409,-0.0833 0.15007,-0.30123 0.15007,-0.30123 l -0.016,-0.97 0.016,-0.70228 c 0,-0.0834 -0.13324,-0.23385 -0.13324,-0.23385 -0.11646,-0.016 -0.0835,-0.16687 -0.0835,-0.16687 0.0333,-0.0835 0.31665,-0.0332 0.31665,-0.0332 h 0.7028 c 0.66891,0.21707 0.56886,0.702 0.56886,0.702 0.0506,0.4845 -0.46757,0.6864 -0.46757,0.6864 l -0.0344,0.26666 0.48549,0.76839 c 0.0838,0.0674 0.0671,0.1349 0.0671,0.1349 -0.0671,0.18383 -0.33528,0 -0.33528,0 l -0.60138,-0.9368 c -0.0503,-0.0671 -0.1505,0.0507 -0.1505,0.0507"
       style="fill:#1f1f1f;fill-opacity:1;fill-rule:nonzero;stroke:none;stroke-width:0.0352777" />
    <path
       id="path41"
       d="m 98.769275,114.00058 c 0,0 0.116699,-0.0492 0.150213,-0.13201 0,0 0.351261,-0.0345 0.401003,-0.0841 l 1.103949,0.0841 c 0,0 1.08631,0.0828 1.55469,-0.25287 0,0 0.16838,0 0.28568,0.051 0,0 0.23273,0.0503 0.29915,0.15007 l 0.63624,-0.0172 c 0,0 0.36752,0.11836 0.33376,0.35278 v 0.29986 c 0,0 -0.0672,0.60233 0.10005,0.63595 h 0.48602 c 0,0 0.40104,0.18426 0.35102,0.41798 0,0 0.0165,0.33362 -0.33348,0.40057 0,0 -0.35239,0.10005 -0.46842,0.0844 0,0 -0.11797,0.1505 -0.13519,0.33363 l -0.0496,2.19068 c 0,0 -0.0338,0.2341 0.3175,0.20048 0,0 0.5176,-0.0496 0.66919,0.23509 0,0 0.13405,0.48454 -0.13367,0.56804 l -0.19981,0.0995 -0.43618,0.0685 c 0,0 -0.18327,0.0162 -0.19995,0.3332 v 0.58498 c 0,0 0.0167,0.40171 -0.30124,0.40171 l -0.46782,0.0339 c 0,0 -0.11716,0.0995 -0.35101,0.0329 0,0 -2.842334,0.0507 -2.943052,0.016 l -0.335139,0.0684 c 0,0 -0.367136,0.33429 -0.668513,0.0824 l -0.233963,-0.18454 c 0,0 -0.166758,0.0338 -0.233468,0.0178 -0.0671,-0.0178 -3.14385,0.0339 -3.14385,0.0339 0,0 -0.652074,0.0671 -0.701674,-0.15103 0,0 -0.08326,-0.85287 -0.05031,-0.95373 0,0 0,-0.2497 -0.150636,-0.26709 0,0 -0.651934,-0.0325 -0.66862,-0.10044 0,0 -0.351825,-0.25012 -0.250931,-0.50052 0,0 0.117405,-0.33567 0.468383,-0.36833 0,0 0.53467,0.0846 0.53467,-0.067 0,0 0.03418,-0.10044 0.03418,-0.26649 0,0 0.03295,-1.99087 0.01612,-2.12425 0,0 0.04988,-0.25122 -0.167428,-0.25122 0,0 -0.233997,0.0663 -0.38421,-0.0332 0,0 -0.400862,0.0171 -0.484787,-0.30138 0,0 -0.06738,-0.20009 0.03309,-0.36876 0,0 0.183973,-0.36724 0.719067,-0.24955 0,0 0.301095,0.0842 0.334151,-0.13286 l -0.0157,-0.8031 c 0,0 -0.06795,-0.2172 0.350555,-0.33446 0,0 0.535093,0.15021 0.701569,-0.11713 0,0 0.184397,-0.36823 0.333481,-0.11797 0,0 0.318875,0.30181 1.188437,0.26956 0,0 1.505091,-0.11797 1.5379,-0.0518 0,0 0.367488,0.0518 0.467818,0.16757 l 0.100753,0.0163"
       style="fill:#1f1f1f;fill-opacity:1;fill-rule:nonzero;stroke:none;stroke-width:0.0352777" />
    <path
       id="path42"
       d="m 98.768993,113.98047 c 0,0 0.116593,-0.0491 0.150495,-0.13215 0,0 0.350838,-0.0348 0.40072,-0.0842 l 1.103952,0.0842 c 0,0 1.08616,0.0831 1.55455,-0.25262 0,0 0.16855,0 0.28568,0.051 0,0 0.23315,0.0503 0.29929,0.14951 l 0.63599,-0.0169 c 0,0 0.36805,0.11821 0.33429,0.35277 v 0.30011 c 0,0 -0.0672,0.60223 0.0998,0.63585 h 0.48592 c 0,0 0.40086,0.18383 0.35112,0.41793 0,0 0.0168,0.33352 -0.33362,0.40076 0,0 -0.35236,0.0999 -0.46839,0.0843 0,0 -0.11782,0.15007 -0.13479,0.33366 l -0.0499,2.19107 c 0,0 -0.0335,0.23329 0.31736,0.19981 0,0 0.51773,-0.0489 0.66932,0.23509 0,0 0.13395,0.48426 -0.13338,0.56815 l -0.20024,0.0999 -0.43603,0.0678 c 0,0 -0.18313,0.0164 -0.20021,0.33338 v 0.58536 c 0,0 0.0171,0.40129 -0.30123,0.40129 l -0.46743,0.0339 c 0,0 -0.1173,0.0997 -0.35112,0.0329 0,0 -2.842651,0.0506 -2.942805,0.0164 l -0.335703,0.0677 c 0,0 -0.366572,0.3343 -0.667949,0.0825 l -0.234393,-0.18439 c 0,0 -0.166758,0.0342 -0.233574,0.0178 -0.06685,-0.0178 -3.143321,0.0338 -3.143321,0.0338 0,0 -0.652074,0.0671 -0.702098,-0.15089 0,0 -0.08326,-0.85287 -0.04988,-0.95387 0,0 0,-0.24987 -0.150918,-0.26653 0,0 -0.651651,-0.0329 -0.668902,-0.10033 0,0 -0.351261,-0.25093 -0.250931,-0.50105 0,0 0.117969,-0.33499 0.468948,-0.36861 0,0 0.534423,0.0849 0.534423,-0.0667 0,0 0.03401,-0.10058 0.03401,-0.26663 0,0 0.03337,-1.99101 0.01654,-2.12411 0,0 0.04988,-0.2515 -0.16771,-0.2515 0,0 -0.233716,0.0668 -0.384316,-0.0329 0,0 -0.400897,0.0172 -0.4844,-0.30095 0,0 -0.06766,-0.20024 0.03309,-0.36904 0,0 0.183692,-0.36724 0.718503,-0.2497 0,0 0.30166,0.0841 0.334716,-0.13286 l -0.01626,-0.80309 c 0,0 -0.06738,-0.21693 0.351119,-0.33475 0,0 0.535093,0.15049 0.701569,-0.11656 0,0 0.183973,-0.36823 0.333481,-0.11839 0,0 0.318875,0.30194 1.188014,0.26969 0,0 1.505232,-0.11797 1.537899,-0.0521 0,0 0.367912,0.0521 0.468242,0.16785 z"
       style="fill:none;stroke:#1f1f1f;stroke-width:0.0578652;stroke-linecap:butt;stroke-linejoin:miter;stroke-miterlimit:4;stroke-dasharray:none;stroke-opacity:1" />
    <path
       id="path43"
       d="m 99.204038,120.57216 c 0,0 0.200766,-0.10156 0.334998,-0.0661 0.133668,0.0318 2.089784,-0.0174 2.089784,-0.0174 0,0 0.85231,0.0661 0.9864,-0.0515 l 0.19943,-0.0667 c 0,0 0.0842,-0.0994 0.0842,-0.23276 0,-0.1349 0.017,-0.58607 0.017,-0.58607 l 0.0504,-0.16595 c 0,0 -0.0165,-0.16795 0,-4.6332 0,0 0.0661,-0.3495 -0.15156,-0.56762 0,0 0,-0.13314 0.0675,-0.1166 0.0675,0.0174 0.0336,0.0174 0.0336,0.0174 0,0 0.30054,-0.085 0.35003,0.0323 0,0 0.13518,0.40019 0.0168,0.63461 0,0 -0.0328,0.48588 0.21939,0.48588 0,0 0.0996,0.10061 0.29986,0.05 0,0 0.43477,0.0506 0.43477,0.18341 0,0 0,0.3018 -0.30124,0.25107 l -0.40157,0.0329 c 0,0 -0.268,0.0523 -0.23371,0.36795 0.0338,0.31831 -0.0175,2.59207 -0.0175,2.59207 0,0 0,0.26846 0.41878,0.2522 0,0 0.51844,-0.0176 0.51844,0.13229 0,0 0.13325,0.33514 -0.23399,0.35207 0,0 -0.70323,-0.0169 -0.65197,0.18288 0,0 -0.0513,0.46839 -0.084,0.55161 0,0 0.0676,0.3853 -0.0167,0.45229 0,0 -0.0492,0.21746 -0.50077,0.18341 0,0 -2.875846,-0.0158 -3.327578,0.0164 0,0 -0.268287,-0.0323 -0.200766,-0.26681"
       style="fill:#ffffff;fill-opacity:1;fill-rule:nonzero;stroke:none;stroke-width:0.0352777" />
    <path
       id="path44"
       d="m 98.68602,120.25452 c 0,0 0.284303,0.0495 0.284303,0.31764 0,0.26681 0.01669,0.41755 -0.151306,0.45117 -0.166617,0.0334 -0.350167,-0.0165 -0.399768,-0.23301 -0.05112,-0.21816 0.03238,-0.4863 0.266771,-0.5358"
       style="fill:#ffffff;fill-opacity:1;fill-rule:nonzero;stroke:none;stroke-width:0.0352777" />
    <path
       id="path45"
       d="m 99.020065,120.12071 c 0,0 0.300426,-0.20158 0.417689,-0.16729 0,0 1.521776,0.0999 1.990446,0.0175 0.46796,-0.0842 0.18369,-0.0175 0.18369,-0.0175 0,0 0.40142,0 0.51773,-0.15074 0,0 0.11769,-0.0322 0.18423,0.0841 l 0.24983,0.26871 c 0,0 0.0181,0.16605 -0.26649,0.14894 0,0 -2.725769,0 -2.808742,0.0171 0,0 -0.518125,0.0831 -0.468383,-0.2008"
       style="fill:#ffffff;fill-opacity:1;fill-rule:nonzero;stroke:none;stroke-width:0.0352777" />
    <path
       id="path46"
       d="m 99.020065,120.12071 c 0,0 0.300426,-0.20158 0.417689,-0.16729 0,0 1.521776,0.0999 1.990446,0.0175 0.46796,-0.0842 0.18369,-0.0175 0.18369,-0.0175 0,0 0.40142,0 0.51773,-0.15074 0,0 0.11769,-0.0322 0.18423,0.0841 l 0.24983,0.26871 c 0,0 0.0181,0.16605 -0.26649,0.14894 0,0 -2.725769,0 -2.808742,0.0171 0,0 -0.518125,0.0831 -0.468383,-0.2008 z"
       style="fill:none;stroke:#1f1f1f;stroke-width:0.0607587;stroke-linecap:butt;stroke-linejoin:miter;stroke-miterlimit:4;stroke-dasharray:none;stroke-opacity:1" />
    <path
       id="path47"
       d="m 95.058053,114.18484 c 0,0 0.116593,0 0.10033,0.20105 l -0.03429,5.04955 c 0,0 0.05055,0.335 -0.233468,0.55203 0,0 -0.151448,0.18312 -0.151448,-0.10072 l 0.06809,-5.14946 c 0,0 0.01612,-0.38502 0.25079,-0.55245"
       style="fill:#ffffff;fill-opacity:1;fill-rule:nonzero;stroke:none;stroke-width:0.0352777" />
    <path
       id="path48"
       d="m 95.058053,114.18484 c 0,0 0.116593,0 0.10033,0.20105 l -0.03429,5.04955 c 0,0 0.05055,0.335 -0.233468,0.55203 0,0 -0.151448,0.18312 -0.151448,-0.10072 l 0.06809,-5.14946 c 0,0 0.01612,-0.38502 0.25079,-0.55245 z"
       style="fill:none;stroke:#1f1f1f;stroke-width:0.0607587;stroke-linecap:butt;stroke-linejoin:miter;stroke-miterlimit:4;stroke-dasharray:none;stroke-opacity:1" />
    <path
       id="path49"
       d="m 94.790471,114.21913 c 0,0 -0.200801,0.36752 -0.184115,0.45201 l -0.01669,1.11922 c 0,0 -0.01679,0.71907 0,0.80257 0.01669,0.0837 -0.01679,2.19082 -0.01679,2.19082 0,0 -0.01654,0.4002 0,0.53524 v 0.90262 c 0,0 -0.03337,0.40086 0.267053,0.29972 0,0 2.942519,-0.0664 3.127304,-0.0153 0,0 0.266806,0.0495 0.167569,0.1834 0,0 0,0.1173 -0.185208,0.0834 0,0 -1.387686,0.13282 -2.640859,0.0838 0,0 -0.83633,0.049 -0.88706,-0.0499 0,0 -0.133244,-0.0164 -0.133244,-0.50232 0,0 0,-0.45032 -0.03239,-0.53396 0,0 0.03239,-0.23689 -0.385445,-0.2854 0,0 -0.584411,0.10114 -0.601768,-0.24969 0,0 0.0835,-0.25108 0.651933,-0.2183 0,0 0.418254,0.0667 0.33528,-0.26829 l 0.04921,-2.47304 c 0,0 0.05126,-0.436 -0.233857,-0.45311 0,0 -0.266664,-0.0145 -0.351401,0.0171 0,0 -0.484787,0 -0.451168,-0.28307 0,0 0.167287,-0.30124 0.651933,-0.23439 0,0 0.367665,0.0663 0.384493,-0.35059 0,0 -0.01683,-0.85312 0.183938,-0.88607 0,0 0.418536,0.0152 0.301272,0.13353"
       style="fill:#ffffff;fill-opacity:1;fill-rule:nonzero;stroke:none;stroke-width:0.0352777" />
    <path
       id="path50"
       d="m 95.291239,119.75308 c 0,0 0.234386,0.2497 0.619548,0.23439 l 2.272277,0.0327 c 0,0 0.251602,0.0176 0.236185,0.15046 0,0 -0.03528,0.19985 -0.334857,0.13381 l -2.742706,-0.0333 -0.301272,0.0182 c 0,0 -0.200766,-0.0348 0.117969,-0.41935 l 0.132856,-0.11684"
       style="fill:#ffffff;fill-opacity:1;fill-rule:nonzero;stroke:none;stroke-width:0.0352777" />
    <path
       id="path51"
       d="m 95.291239,119.75308 c 0,0 0.234386,0.2497 0.619548,0.23439 l 2.272277,0.0327 c 0,0 0.251602,0.0176 0.236185,0.15046 0,0 -0.03528,0.19985 -0.334857,0.13381 l -2.742706,-0.0333 -0.301272,0.0182 c 0,0 -0.200766,-0.0348 0.117969,-0.41935 z"
       style="fill:none;stroke:#1f1f1f;stroke-width:0.0607587;stroke-linecap:butt;stroke-linejoin:miter;stroke-miterlimit:4;stroke-dasharray:none;stroke-opacity:1" />
    <path
       id="path52"
       d="m 102.31385,119.53422 c 0,0 0.20094,0.38491 0.30137,0.43741 0,0 0.18398,0.21593 0.13381,-0.16842 l 0.0336,-4.81665 c 0,0 -0.0503,-0.16672 0,-0.43381 l -0.20091,-0.36791 c 0,0 -0.21801,-0.16662 -0.21801,0.10057 l -0.0329,5.13349 -0.017,0.11532"
       style="fill:#ffffff;fill-opacity:1;fill-rule:nonzero;stroke:none;stroke-width:0.0352777" />
    <path
       id="path53"
       d="m 102.31385,119.53422 c 0,0 0.20094,0.38491 0.30137,0.43741 0,0 0.18398,0.21593 0.13381,-0.16842 l 0.0336,-4.81665 c 0,0 -0.0503,-0.16672 0,-0.43381 l -0.20091,-0.36791 c 0,0 -0.21801,-0.16662 -0.21801,0.10057 l -0.0329,5.13349 z"
       style="fill:none;stroke:#1f1f1f;stroke-width:0.0607587;stroke-linecap:butt;stroke-linejoin:miter;stroke-miterlimit:4;stroke-dasharray:none;stroke-opacity:1" />
    <path
       id="path54"
       d="m 98.602658,117.24395 c 0,0 0.01683,0.40044 -0.03447,0.78479 -0.02741,0.2104 0.06742,1.18854 -0.01679,1.68959 0,0 -0.01556,0.16676 -0.367948,0.0174 0,0 -2.139526,0.0495 -2.206095,-0.0174 0,0 -0.585541,0.0174 -0.635671,-0.28402 0,0 0.08364,-2.29002 0.03362,-2.37641 0,0 -0.03362,-1.25265 0,-1.3691 0,0 0.05002,-1.15408 0.01651,-1.28789 0,0 0.01654,-0.26747 -0.03306,-0.4017 0,0 0,-0.16743 0.284162,-0.0674 0,0 0.09906,0.18464 0.65151,0.10251 0,0 0.402273,0.0661 0.786589,0.0155 0,0 0.852311,-0.0669 1.070328,0 0,0 0.334715,-0.0669 0.433528,0.30177 l -0.01669,1.03671 0.10033,0.33376 0.117828,-0.0825 0.04907,-0.25121 0.01665,-1.10409 c 0,0 0.06685,-0.20077 0.334751,-0.23439 0,0 0.418077,-0.0506 0.486163,-0.0155 0.06615,0.0321 0.968477,0.0821 1.220787,0.0321 0.24998,-0.0503 0.29947,0.16714 1.05255,-0.21636 0,0 0.20094,0.0163 0.20094,0.14912 0,0 -0.0687,1.42254 0,1.68959 0,0 0,2.60795 -0.0515,2.79135 l 0.0339,0.83648 c 0,0 0.0331,0.36794 -0.55097,0.4017 0,0 0.36767,0.0496 -1.940664,-0.0167 0,0 -0.367665,-0.0171 -0.768527,0.16608 0,0 -0.08311,-0.0165 -0.08311,-0.23346 0,0 0.06572,-0.78493 0,-1.55593 l -0.03306,-0.85178 -0.150636,0.0174"
       style="fill:#ffffff;fill-opacity:1;fill-rule:nonzero;stroke:none;stroke-width:0.0352777" />
    <path
       id="path55"
       d="m 97.097144,116.05759 c 0,0 0.05087,1.23776 0,1.40477 l -0.01542,0.26747 c 0,0 0.06629,0.18313 0.166723,0.25065 0,0 0.08378,0.23372 -0.117687,0.21788 0,0 -0.417266,-0.0344 -0.517455,-0.0183 0,0 -0.235091,0 0,-0.29934 0,0 0.08283,-0.11793 0.06604,-0.41835 0,0 0,-1.40477 0.03415,-1.4876 0,0 0.03295,-0.18439 -0.08431,-0.23495 l -0.200942,0.0166 -0.249555,0.23456 c 0,0 -0.05126,0.2515 -0.168522,-0.0163 v -0.13437 l 0.151024,-0.40115 0.100859,-0.0175 c 0,0 0.14979,0.101 0.283599,0.1349 h 0.786588 l 0.283739,-0.1349 c 0,0 0.116734,0.0175 0.08435,0.16771 0,0 0.04907,0.3853 -0.167851,0.43476 0,0 -0.134091,-0.0495 -0.200237,-0.23386 0,0 -0.218122,-0.11669 -0.235091,0.26723"
       style="fill:#1f1f1f;fill-opacity:1;fill-rule:nonzero;stroke:none;stroke-width:0.0352777" />
    <path
       id="path56"
       d="m 100.79168,115.6071 c 0,0 -0.63405,-0.0511 -0.65045,0.635 0,0 -0.0685,0.4688 0.635,0.7699 0,0 0.51816,0.24998 0.48426,0.56762 0,0 -0.0672,0.56885 -0.61902,0.28416 0,0 -0.26677,-0.13395 -0.24942,-0.28416 0,0 -0.0846,-0.18436 -0.18468,-0.15021 0,0 -0.11782,0.0329 -0.0661,0.58458 0,0 0,0.21774 0.25083,0 l 0.13268,0.0341 c 0,0 0.45159,0.36767 0.83566,-0.0842 0,0 0.41892,-0.38435 0.11726,-0.85221 0,0 -0.21717,-0.33386 -0.60124,-0.50133 0,0 -0.36833,-0.16838 -0.45159,-0.45212 0,0 0.11744,-0.502 0.56776,-0.23509 0,0 0.168,0.20119 0.2679,0.23509 0,0 0.13381,0 0.0999,-0.30194 l -0.032,-0.24927 c 0,0 -0.034,-0.18631 -0.2686,0 0,0 -0.2177,0.0824 -0.26815,0"
       style="fill:#1f1f1f;fill-opacity:1;fill-rule:nonzero;stroke:none;stroke-width:0.0352777" />
    <path
       id="path57"
       d="m 98.486065,116.35855 c -0.01764,0.0835 -0.134902,0.55203 -0.134902,0.55203 l 0.100471,0.16756 c 0,0 0.267476,0.0159 0.367383,0.0159 0.09991,0 0.117545,-0.082 0.117545,-0.16746 0,-0.0828 -0.183691,-0.58413 -0.183691,-0.58413 l -0.08435,-0.0999 z m 0.266806,-1.10381 c 0.116593,0.0849 0.133103,0.25136 0.133103,0.25136 0.334857,0.88635 0.61916,2.17385 0.61916,2.17385 0.08336,0.16633 0.233998,0.30138 0.233998,0.30138 0.284268,0.0993 0,0.18259 0,0.18259 -0.117122,0.051 -0.500768,-0.0155 -0.500768,-0.0155 -0.201331,-0.0351 -0.118533,-0.10033 -0.118533,-0.10033 0.08421,-0.0842 0.01669,-0.41959 0.01669,-0.41959 -0.01669,-0.13286 -0.166194,-0.35003 -0.166194,-0.35003 -0.06685,-0.0339 -0.183973,0.11674 -0.183973,0.11674 0,0 -0.183692,0.0671 -0.201472,0 -0.01669,-0.0678 -0.133244,-0.13258 -0.133244,-0.13258 -0.200519,0 -0.283739,0.5001 -0.283739,0.5001 0.116593,0.41864 0,0.35056 0,0.35056 -0.100471,0.13462 -0.4185,0.0351 -0.4185,0.0351 -0.149825,-0.0351 -0.04907,-0.15197 -0.04907,-0.15197 0.183127,-0.0325 0.232622,-0.23372 0.232622,-0.23372 0.0846,-0.11702 0.618455,-2.2903 0.618455,-2.2903 0.05126,-0.10129 0.08421,-0.3011 0.201471,-0.21774"
       style="fill:#1f1f1f;fill-opacity:1;fill-rule:nonzero;stroke:none;stroke-width:0.0352777" />
    <path
       id="path58"
       d="m 94.222993,111.20563 c 0,0 -0.184115,0.58677 -1.003229,-0.0166 l -2.808852,-0.0667 c 0,0 -0.367947,0.11811 -0.418112,-0.26734 0,0 0.06713,-0.76838 0.03281,-0.83562 0,0 0.01736,-0.21774 -0.350556,-0.21774 0,0 -0.568042,0.0683 -0.584588,-0.43395 0,0 -0.100718,-0.53618 0.685024,-0.51855 0,0 0.25012,0.11656 0.267476,-0.20066 0,0 -0.03376,-2.17342 -0.01736,-2.3417 0,0 0.06837,-0.19844 -0.317076,-0.23234 0,0 -0.55245,0.11578 -0.618067,-0.25216 0,0 -0.03404,-0.55065 0.333622,-0.58498 0,0 0.451167,0.0343 0.535376,-0.0821 0,0 0.100471,0.0654 0.0835,-0.33613 l 0.01697,-0.68474 c 0,0 0.05016,-0.18411 0.333621,-0.167 0,0 0.518831,0.0325 0.586211,-0.0171 0,0 0.117123,-0.14993 0.149119,-0.2177 0,0 0.26857,-0.0152 0.318876,0.0503 0,0 0.400579,0.26737 1.923592,0.16743 0,0 0.232762,0 0.283739,0.0671 0,0 0.283457,0.21688 0.450356,-0.0175 0,0 0.251071,-0.0496 1.003758,-0.0325 0,0 0.817986,0.21635 1.387122,-0.24998 l 0.183692,0.0332 c 0,0 0.233715,0.38378 0.402378,0.2668 0,0 0.50105,-0.05 0.58554,0.0506 0,0 0.166864,0.25041 0.08227,0.90276 0,0 -0.09977,0.28445 0.384598,0.28445 0,0 0.551921,-0.0999 0.48507,0.41698 0,0 0.151165,0.58593 -0.768809,0.50229 0,0 -0.117404,0.16785 -0.100859,0.28444 0,0 -0.01654,1.90528 -0.03309,2.1234 0,0 -0.01598,0.30001 0.384916,0.28445 0,0 0.534952,-0.0351 0.551356,0.45131 0,0 0.06639,0.63528 -0.701851,0.51759 0,0 -0.234421,0.0344 -0.268041,0.18384 l -0.03306,0.83562 c 0,0 0.0175,0.41864 -0.452261,0.31859 -0.06671,0 -2.607134,0.0495 -2.824868,-0.0161 0,0 -0.116558,-0.0176 -0.150319,0.0482"
       style="fill:#1f1f1f;fill-opacity:1;fill-rule:nonzero;stroke:none;stroke-width:0.0352777" />
    <path
       id="path59"
       d="m 94.222993,111.20563 c 0,0 -0.184115,0.58677 -1.003229,-0.0166 l -2.808852,-0.0667 c 0,0 -0.367947,0.11811 -0.418112,-0.26734 0,0 0.06713,-0.76838 0.03281,-0.83562 0,0 0.01736,-0.21774 -0.350556,-0.21774 0,0 -0.568042,0.0683 -0.584588,-0.43395 0,0 -0.100718,-0.53618 0.685024,-0.51855 0,0 0.25012,0.11656 0.267476,-0.20066 0,0 -0.03376,-2.17342 -0.01736,-2.3417 0,0 0.06837,-0.19844 -0.317076,-0.23234 0,0 -0.55245,0.11578 -0.618067,-0.25216 0,0 -0.03404,-0.55065 0.333622,-0.58498 0,0 0.451167,0.0343 0.535376,-0.0821 0,0 0.100471,0.0654 0.0835,-0.33613 l 0.01697,-0.68474 c 0,0 0.05016,-0.18411 0.333621,-0.167 0,0 0.518831,0.0325 0.586211,-0.0171 0,0 0.117123,-0.14993 0.149119,-0.2177 0,0 0.26857,-0.0152 0.318876,0.0503 0,0 0.400579,0.26737 1.923592,0.16743 0,0 0.232762,0 0.283739,0.0671 0,0 0.283457,0.21688 0.450356,-0.0175 0,0 0.251071,-0.0496 1.003758,-0.0325 0,0 0.817986,0.21635 1.387122,-0.24998 l 0.183692,0.0332 c 0,0 0.233715,0.38378 0.402378,0.2668 0,0 0.50105,-0.05 0.58554,0.0506 0,0 0.166864,0.25041 0.08227,0.90276 0,0 -0.09977,0.28445 0.384598,0.28445 0,0 0.551921,-0.0999 0.48507,0.41698 0,0 0.151165,0.58593 -0.768809,0.50229 0,0 -0.117404,0.16785 -0.100859,0.28444 0,0 -0.01654,1.90528 -0.03309,2.1234 0,0 -0.01598,0.30001 0.384916,0.28445 0,0 0.534952,-0.0351 0.551356,0.45131 0,0 0.06639,0.63528 -0.701851,0.51759 0,0 -0.234421,0.0344 -0.268041,0.18384 l -0.03306,0.83562 c 0,0 0.0175,0.41864 -0.452261,0.31859 -0.06671,0 -2.607134,0.0495 -2.824868,-0.0161 0,0 -0.116558,-0.0176 -0.150319,0.0482 z"
       style="fill:none;stroke:#1f1f1f;stroke-width:0.0578652;stroke-linecap:butt;stroke-linejoin:miter;stroke-miterlimit:4;stroke-dasharray:none;stroke-opacity:1" />
    <path
       id="path60"
       d="m 91.062845,104.31821 c 0,0 0.03404,0.3339 0.03404,0.41741 0,0.0834 -0.05084,4.8321 -0.05084,4.8321 0,0 0.05084,0.36862 -0.267476,0.55202 0,0 -0.08322,0.0346 -0.100471,-0.19995 l 0.03337,-5.01576 c 0,0 0.03348,-0.61877 0.351366,-0.58582"
       style="fill:#ffffff;fill-opacity:1;fill-rule:nonzero;stroke:none;stroke-width:0.0352777" />
    <path
       id="path61"
       d="m 91.062845,104.31821 c 0,0 0.03404,0.3339 0.03404,0.41741 0,0.0834 -0.05084,4.8321 -0.05084,4.8321 0,0 0.05084,0.36862 -0.267476,0.55202 0,0 -0.08322,0.0346 -0.100471,-0.19995 l 0.03337,-5.01576 c 0,0 0.03348,-0.61877 0.351366,-0.58582 z"
       style="fill:none;stroke:#1f1f1f;stroke-width:0.0607587;stroke-linecap:butt;stroke-linejoin:miter;stroke-miterlimit:4;stroke-dasharray:none;stroke-opacity:1" />
    <path
       id="path62"
       d="m 90.511383,110.17005 c 0,0 0.03306,-4.71509 0.01665,-4.79929 -0.01665,-0.0828 0.0164,0.0675 0.0164,0.0675 0,0 -0.04946,-0.81774 0.16704,-1.15341 0,0 -0.06671,-0.28473 -0.451061,0.0663 l -0.01626,0.68626 c 0,0 0,0.3846 -0.351367,0.36791 0,0 -0.401708,-0.0174 -0.586387,0.16732 0,0 -0.09977,0.36724 0.284445,0.30124 0,0 0.602332,0 0.635423,0.24913 l -0.03309,2.5254 c 0,0 0.134232,0.41797 -0.334433,0.41797 0,0 -0.568325,-0.0329 -0.552345,0.31817 0,0 0.117687,0.30113 0.603039,0.20066 0,0 0.350979,0.0667 0.334715,0.40043 v 0.63599 c 0,0 -0.03457,0.2515 0.300285,0.26677 h 2.608509 c 0,0 0.133527,0.0179 0.133527,-0.15088 0,0 -0.01697,-0.13215 -0.216924,-0.13215 l -2.172758,-0.034 c 0,0 -0.352354,0.11684 -0.385409,-0.40129"
       style="fill:#ffffff;fill-opacity:1;fill-rule:nonzero;stroke:none;stroke-width:0.0352777" />
    <path
       id="path63"
       d="m 90.962832,110.20339 c 0,0 -0.06629,0.23495 0.183269,0.18369 h 1.722402 l 0.468383,0.0999 c 0,0 0.486057,-0.1167 0,-0.3839 0,0 -1.538429,0.0166 -1.672661,-0.0165 0,0 -0.316512,-0.0835 -0.384034,-0.10019 0,0 -0.167569,-0.0666 -0.317359,0.21703"
       style="fill:#ffffff;fill-opacity:1;fill-rule:nonzero;stroke:none;stroke-width:0.0352777" />
    <path
       id="path64"
       d="m 90.962832,110.20339 c 0,0 -0.06629,0.23495 0.183269,0.18369 h 1.722402 l 0.468383,0.0999 c 0,0 0.486057,-0.1167 0,-0.3839 0,0 -1.538429,0.0166 -1.672661,-0.0165 0,0 -0.316512,-0.0835 -0.384034,-0.10019 0,0 -0.167569,-0.0666 -0.317359,0.21703 z"
       style="fill:none;stroke:#1f1f1f;stroke-width:0.0607587;stroke-linecap:butt;stroke-linejoin:miter;stroke-miterlimit:4;stroke-dasharray:none;stroke-opacity:1" />
    <path
       id="path65"
       d="m 93.822661,110.43834 c 0,0 -0.318453,0 -0.30219,0.41659 0,0 0.03348,0.3186 0.36763,0.3186 0,0 0.301378,-0.0513 0.268041,-0.38393 0,0 -0.184503,-0.41931 -0.333481,-0.35126"
       style="fill:#ffffff;fill-opacity:1;fill-rule:nonzero;stroke:none;stroke-width:0.0352777" />
    <path
       id="path66"
       d="m 94.055812,110.26996 c 0,0 0.150071,-0.16687 0.250824,-0.16687 0,0 1.671673,0.1506 1.955977,-0.0495 0,0 0.251495,-0.0495 0.317641,0 0,0 0.250648,0.20009 0.250648,0.31669 0,0 -0.01612,0.15183 -0.316794,0.068 0,0 -1.890536,0.0161 -1.990161,0.0161 0,0 -0.51883,0.11688 -0.468135,-0.1845"
       style="fill:#ffffff;fill-opacity:1;fill-rule:nonzero;stroke:none;stroke-width:0.0352777" />
    <path
       id="path67"
       d="m 94.055812,110.26996 c 0,0 0.150071,-0.16687 0.250824,-0.16687 0,0 1.671673,0.1506 1.955977,-0.0495 0,0 0.251495,-0.0495 0.317641,0 0,0 0.250648,0.20009 0.250648,0.31669 0,0 -0.01612,0.15183 -0.316794,0.068 0,0 -1.890536,0.0161 -1.990161,0.0161 0,0 -0.51883,0.11688 -0.468135,-0.1845 z"
       style="fill:none;stroke:#1f1f1f;stroke-width:0.0607587;stroke-linecap:butt;stroke-linejoin:miter;stroke-miterlimit:4;stroke-dasharray:none;stroke-opacity:1" />
    <path
       id="path68"
       d="m 94.323146,110.77185 c 0,0 0,-0.13243 0.232904,-0.13243 l 2.342374,-0.0178 c 0,0 0.216641,0.11589 0.216641,-0.2843 0,0 0.08587,-1.82302 0.0937,-3.83025 0.0029,-0.59683 0.0291,-1.22358 0.0068,-1.804 0,0 -0.05031,-0.24998 -0.117263,-0.30166 0,0 0,-0.2672 0.285362,-0.16605 0,0 0.24959,0.0163 0.182597,0.40019 l 0.01722,0.58568 c 0,0 -0.05055,0.25012 0.400473,0.18408 0,0 0.451168,0.066 0.467713,0.23371 0,0 0.13462,0.33514 -0.399627,0.30085 h -0.384069 c 0,0 -0.167711,0.0999 -0.117969,0.30124 l -0.04974,2.42425 c 0,0 -0.03447,0.41713 0.367807,0.40224 0,0 0.417936,-0.0174 0.500768,0.11617 0,0 0.284585,0.4185 -0.334292,0.3846 0,0 -0.38407,-0.0166 -0.468278,0.05 0,0 -0.06601,0.0846 -0.116593,0.86858 0,0 0.03323,0.46923 -0.31817,0.41934 0,0 -2.323359,0.0323 -2.540423,-0.0179 0,0 -0.234527,0.0678 -0.2679,-0.11655"
       style="fill:#ffffff;fill-opacity:1;fill-rule:nonzero;stroke:none;stroke-width:0.0352777" />
    <path
       id="path69"
       d="m 91.312576,104.16648 -0.04879,5.36776 c 0,0 -0.0164,0.24913 0.401003,0.29944 0,0 0.485634,0.051 0.601662,0 0,0 0.317218,-0.016 1.136862,0.0178 0,0 0.200801,0.19995 0.217593,-0.0503 0,0 0.133668,-4.34717 0.06713,-5.25032 0,0 -0.01683,-0.38435 -0.301942,-0.40114 0,0 -1.270423,0.0999 -1.386875,0 l -0.501298,-0.13381 c 0,0 -0.201366,0.0161 -0.18535,0.1506"
       style="fill:#ffffff;fill-opacity:1;fill-rule:nonzero;stroke:none;stroke-width:0.0352777" />
    <path
       id="path70"
       d="m 96.614015,104.36837 -0.01697,5.28299 c 0,0 0.133562,0.46838 0.351825,0.4185 0,0 0.03309,-0.10033 0.0496,-0.26829 l 0.06685,-5.03248 c 0,0 -0.166899,-0.80257 -0.451308,-0.40072"
       style="fill:#ffffff;fill-opacity:1;fill-rule:nonzero;stroke:none;stroke-width:0.0352777" />
    <path
       id="path71"
       d="m 96.614015,104.36837 -0.01697,5.28299 c 0,0 0.133562,0.46838 0.351825,0.4185 0,0 0.03309,-0.10033 0.0496,-0.26829 l 0.06685,-5.03248 c 0,0 -0.166899,-0.80257 -0.451308,-0.40072 z"
       style="fill:none;stroke:#1f1f1f;stroke-width:0.0607587;stroke-linecap:butt;stroke-linejoin:miter;stroke-miterlimit:4;stroke-dasharray:none;stroke-opacity:1" />
    <path
       id="path72"
       d="m 93.956046,104.41275 c 0,0 -0.05002,2.52416 -0.03418,2.60848 l -0.03168,2.12344 -0.06752,0.73504 c 0,0 0.0992,0.15103 0.182986,0.0506 0,0 0.535798,-0.13325 0.869844,-0.0832 0,0 1.070998,0.10128 1.287356,-0.067 0,0 0.167288,0.083 0.217453,-0.18408 0,0 0.06643,-4.68122 0.03348,-4.76473 0,0 0.06713,-0.66904 0.03295,-0.73518 0,0 -0.01736,-0.15184 -0.300425,-0.0181 0,0 0.03295,0.13451 -1.554692,0.0842 0,0 -0.602085,-0.0165 -0.635564,0.25054"
       style="fill:#ffffff;fill-opacity:1;fill-rule:nonzero;stroke:none;stroke-width:0.0352777" />
    <path
       id="path73"
       d="m 93.439967,105.95905 -0.150741,0.31887 c 0,0 -0.367242,1.6207 -0.567479,1.95503 0,0 -0.03334,0.33567 -0.317782,0.0667 0,0 -0.652498,-2.05588 -0.686541,-2.1227 l -0.216888,-0.1513 c 0,0 -0.132291,-0.18373 0.100295,-0.19985 l 0.61916,0.0161 c 0,0 0.200096,0.16704 -0.06653,0.35267 0,0 0.03291,0.26677 0.383752,1.28626 0,0 0.10033,0.38418 0.217488,0.10044 l 0.334856,-1.18731 -0.101035,-0.35098 c 0,0 -0.100295,-0.16743 0.05045,-0.18425 0,0 0.351261,-0.0329 0.401002,0.10033"
       style="fill:#1f1f1f;fill-opacity:1;fill-rule:nonzero;stroke:none;stroke-width:0.0352777" />
    <path
       id="path74"
       d="m 94.410388,106.22705 -0.01764,1.77232 -0.04907,0.13297 c 0,0 -0.167428,0.21759 -0.05055,0.2347 0,0 -0.149507,0.10072 1.069481,0.1167 0,0 0.468948,0.0833 0.351543,-0.51855 0,0 -0.05031,-0.21689 -0.218122,0.10072 0,0 -0.05059,0.26652 -0.650875,0.18302 0,0 -0.134197,-0.11659 -0.134197,-0.24956 v -0.73603 c 0,0 -0.01739,-0.18408 0.267194,-0.16577 0,0 0.317782,0.199 0.368335,0.11437 0,0 0.116593,-0.26621 0,-0.43353 0,0 -0.151306,-0.0158 -0.167569,0.0499 0,0 -0.100718,0.20094 -0.384458,0.0838 0,0 -0.133808,-0.26705 -0.05002,-0.48451 0,0 -0.03348,-0.41864 0.250931,-0.3846 0,0 0.334186,0.0663 0.367241,0.16757 0,0 0.08283,0.20077 0.167711,-0.0334 l -0.08488,-0.28497 c 0,0 -0.04837,-0.11656 -0.132856,-0.0834 0,0 -0.568148,0.0834 -0.63567,0.0164 l -0.451732,0.0503 c 0,0 -0.06615,0.16743 0.134373,0.25023 0,0 0.05083,0.034 0.05083,0.10128"
       style="fill:#1f1f1f;fill-opacity:1;fill-rule:nonzero;stroke:none;stroke-width:0.0352777" />
  </g>
</svg>
